{
  "source": "C:\\Users\\Peter\\Desktop\\stuff\\MIUN\\quantitative_research\\video_compression\\videos\\BVI-HD\\SmokeGuns_1920x1080_60fps.mp4",
  "output": "C:\\Users\\Peter\\Desktop\\stuff\\MIUN\\quantitative_research\\video_compression\\compressed_videos\\BVI-HD\\vp9\\12\\SmokeGuns_1920x1080_60fps_vp9.webm",
  "codec": "vp9",
  "ok": "Input #0, mov,mp4,m4a,3gp,3g2,mj2, from 'C:\\Users\\Peter\\Desktop\\stuff\\MIUN\\quantitative_research\\video_compression\\videos\\BVI-HD\\SmokeGuns_1920x1080_60fps.mp4':\n  Metadata:\n    major_brand     : isom\n    minor_version   : 512\n    compatible_brands: isomiso2avc1mp41\n    encoder         : Lavf54.28.101\n  Duration: 00:00:05.00, start: 0.000000, bitrate: 384353 kb/s\n  Stream #0:0[0x1](und): Video: h264 (High 4:4:4 Predictive) (avc1 / 0x31637661), yuv420p(progressive), 1920x1080, 384348 kb/s, 60 fps, 60 tbr, 60 tbn (default)\n    Metadata:\n      handler_name    : VideoHandler\n      vendor_id       : [0][0][0][0]\n[out#0/webm @ 00000280760d9440] Codec AVOption b:a (set bitrate (in bits/s)) has not been used for any stream. The most likely reason is either wrong type (e.g. a video option with no video streams) or that it is a private option of some decoder which was not actually used for any stream.\nStream mapping:\n  Stream #0:0 -> #0:0 (h264 (native) -> vp9 (libvpx-vp9))\nPress [q] to stop, [?] for help\n[libvpx-vp9 @ 0000028076750700] v1.15.2-100-g40561f514\nOutput #0, webm, to 'C:\\Users\\Peter\\Desktop\\stuff\\MIUN\\quantitative_research\\video_compression\\compressed_videos\\BVI-HD\\vp9\\12\\SmokeGuns_1920x1080_60fps_vp9.webm':\n  Metadata:\n    major_brand     : isom\n    minor_version   : 512\n    compatible_brands: isomiso2avc1mp41\n    encoder         : Lavf62.3.100\n  Stream #0:0(und): Video: vp9, yuv420p(tv, progressive), 1920x1080, q=2-31, 12000 kb/s, 60 fps, 1k tbn (default)\n    Metadata:\n      encoder         : Lavc62.11.100 libvpx-vp9\n      handler_name    : VideoHandler\n      vendor_id       : [0][0][0][0]\n    Side data:\n      cpb: bitrate max/min/avg: 0/0/0 buffer size: 12000000 vbv_delay: N/A\nframe=    0 fps=0.0 q=0.0 size=       0KiB time=N/A bitrate=N/A speed=N/A elapsed=0:00:00.53    \nframe=    5 fps=4.5 q=31.0 size=       1KiB time=00:00:00.08 bitrate=  60.8kbits/s speed=0.0748x elapsed=0:00:01.11    \nframe=   10 fps=6.1 q=29.0 size=       1KiB time=00:00:00.16 bitrate=  30.4kbits/s speed=0.102x elapsed=0:00:01.63    \nframe=   14 fps=6.5 q=29.0 size=       1KiB time=00:00:00.23 bitrate=  21.7kbits/s speed=0.109x elapsed=0:00:02.13    \nframe=   18 fps=6.7 q=29.0 size=       1KiB time=00:00:00.30 bitrate=  16.9kbits/s speed=0.112x elapsed=0:00:02.67    \nframe=   23 fps=7.2 q=29.0 size=       1KiB time=00:00:00.38 bitrate=  13.2kbits/s speed=0.12x elapsed=0:00:03.19    \nframe=   26 fps=7.0 q=29.0 size=       1KiB time=00:00:00.43 bitrate=  11.7kbits/s speed=0.116x elapsed=0:00:03.71    \nframe=   30 fps=7.1 q=28.0 size=       1KiB time=00:00:00.50 bitrate=  10.1kbits/s speed=0.118x elapsed=0:00:04.25    \nframe=   35 fps=7.3 q=28.0 size=       1KiB time=00:00:00.58 bitrate=   8.7kbits/s speed=0.122x elapsed=0:00:04.79    \nframe=   38 fps=7.1 q=29.0 size=       1KiB time=00:00:00.63 bitrate=   8.0kbits/s speed=0.118x elapsed=0:00:05.35    \nframe=   42 fps=7.1 q=28.0 size=       1KiB time=00:00:00.70 bitrate=   7.2kbits/s speed=0.119x elapsed=0:00:05.89    \nframe=   46 fps=7.2 q=28.0 size=       1KiB time=00:00:00.76 bitrate=   6.6kbits/s speed=0.119x elapsed=0:00:06.42    \nframe=   49 fps=7.0 q=10.0 size=       1KiB time=00:00:00.81 bitrate=   6.2kbits/s speed=0.117x elapsed=0:00:06.95    \nframe=   54 fps=7.2 q=28.0 size=       1KiB time=00:00:00.90 bitrate=   5.6kbits/s speed=0.12x elapsed=0:00:07.48    \nframe=   58 fps=7.2 q=28.0 size=       1KiB time=00:00:00.96 bitrate=   5.2kbits/s speed=0.12x elapsed=0:00:08.03    \nframe=   61 fps=7.1 q=10.0 size=       1KiB time=00:00:01.01 bitrate=   5.0kbits/s speed=0.119x elapsed=0:00:08.55    \nframe=   65 fps=7.1 q=28.0 size=       1KiB time=00:00:01.08 bitrate=   4.7kbits/s speed=0.119x elapsed=0:00:09.09    \nframe=   70 fps=7.3 q=28.0 size=       1KiB time=00:00:01.16 bitrate=   4.3kbits/s speed=0.121x elapsed=0:00:09.61    \nframe=   72 fps=7.1 q=28.0 size=       1KiB time=00:00:01.20 bitrate=   4.2kbits/s speed=0.118x elapsed=0:00:10.14    \nframe=   77 fps=7.2 q=28.0 size=       1KiB time=00:00:01.28 bitrate=   3.9kbits/s speed=0.12x elapsed=0:00:10.66    \nframe=   81 fps=7.2 q=28.0 size=       1KiB time=00:00:01.35 bitrate=   3.8kbits/s speed=0.12x elapsed=0:00:11.20    \nframe=   84 fps=7.2 q=29.0 size=       1KiB time=00:00:01.40 bitrate=   3.6kbits/s speed=0.119x elapsed=0:00:11.71    \nframe=   89 fps=7.3 q=28.0 size=       1KiB time=00:00:01.48 bitrate=   3.4kbits/s speed=0.121x elapsed=0:00:12.23    \nframe=   94 fps=7.4 q=29.0 size=       1KiB time=00:00:01.56 bitrate=   3.2kbits/s speed=0.123x elapsed=0:00:12.76    \nframe=   97 fps=7.3 q=10.0 size=       1KiB time=00:00:01.61 bitrate=   3.1kbits/s speed=0.122x elapsed=0:00:13.29    \nframe=  102 fps=7.4 q=30.0 size=       1KiB time=00:00:01.70 bitrate=   3.0kbits/s speed=0.123x elapsed=0:00:13.82    \nframe=  107 fps=7.5 q=30.0 size=       1KiB time=00:00:01.78 bitrate=   2.8kbits/s speed=0.124x elapsed=0:00:14.36    \nframe=  111 fps=7.5 q=29.0 size=       1KiB time=00:00:01.85 bitrate=   2.7kbits/s speed=0.124x elapsed=0:00:14.89    \nframe=  116 fps=7.5 q=31.0 size=       1KiB time=00:00:01.93 bitrate=   2.6kbits/s speed=0.125x elapsed=0:00:15.42    \nframe=  119 fps=7.5 q=11.0 size=       1KiB time=00:00:01.98 bitrate=   2.6kbits/s speed=0.124x elapsed=0:00:15.95    \nframe=  124 fps=7.5 q=30.0 size=       1KiB time=00:00:02.06 bitrate=   2.5kbits/s speed=0.125x elapsed=0:00:16.46    \nframe=  128 fps=7.5 q=31.0 size=       1KiB time=00:00:02.13 bitrate=   2.4kbits/s speed=0.125x elapsed=0:00:17.00    \nframe=  133 fps=7.6 q=29.0 size=    2816KiB time=00:00:02.21 bitrate=10406.9kbits/s speed=0.126x elapsed=0:00:17.52    \nframe=  138 fps=7.6 q=29.0 size=    2816KiB time=00:00:02.30 bitrate=10029.9kbits/s speed=0.127x elapsed=0:00:18.04    \nframe=  142 fps=7.6 q=28.0 size=    2816KiB time=00:00:02.36 bitrate=9747.3kbits/s speed=0.127x elapsed=0:00:18.56    \nframe=  147 fps=7.7 q=29.0 size=    2816KiB time=00:00:02.45 bitrate=9415.8kbits/s speed=0.128x elapsed=0:00:19.12    \nframe=  151 fps=7.7 q=29.0 size=    2816KiB time=00:00:02.51 bitrate=9166.4kbits/s speed=0.128x elapsed=0:00:19.66    \nframe=  155 fps=7.7 q=28.0 size=    2816KiB time=00:00:02.58 bitrate=8929.8kbits/s speed=0.128x elapsed=0:00:20.18    \nframe=  160 fps=7.7 q=29.0 size=    2816KiB time=00:00:02.66 bitrate=8650.8kbits/s speed=0.129x elapsed=0:00:20.72    \nframe=  163 fps=7.7 q=29.0 size=    2816KiB time=00:00:02.71 bitrate=8491.5kbits/s speed=0.128x elapsed=0:00:21.24    \nframe=  168 fps=7.7 q=28.0 size=    2816KiB time=00:00:02.80 bitrate=8238.8kbits/s speed=0.128x elapsed=0:00:21.79    \nframe=  172 fps=7.7 q=29.0 size=    2816KiB time=00:00:02.86 bitrate=8047.2kbits/s speed=0.128x elapsed=0:00:22.33    \nframe=  175 fps=7.7 q=29.0 size=    2816KiB time=00:00:02.91 bitrate=7909.3kbits/s speed=0.128x elapsed=0:00:22.86    \nframe=  180 fps=7.7 q=28.0 size=    2816KiB time=00:00:03.00 bitrate=7689.6kbits/s speed=0.128x elapsed=0:00:23.38    \nframe=  184 fps=7.7 q=29.0 size=    2816KiB time=00:00:03.06 bitrate=7522.4kbits/s speed=0.128x elapsed=0:00:23.90    \nframe=  187 fps=7.7 q=29.0 size=    2816KiB time=00:00:03.11 bitrate=7401.7kbits/s speed=0.128x elapsed=0:00:24.42    \nframe=  191 fps=7.7 q=29.0 size=    2816KiB time=00:00:03.18 bitrate=7246.7kbits/s speed=0.128x elapsed=0:00:24.95    \nframe=  196 fps=7.7 q=29.0 size=    2816KiB time=00:00:03.26 bitrate=7061.8kbits/s speed=0.128x elapsed=0:00:25.50    \nframe=  199 fps=7.6 q=29.0 size=    2816KiB time=00:00:03.31 bitrate=6955.4kbits/s speed=0.127x elapsed=0:00:26.03    \nframe=  204 fps=7.7 q=28.0 size=    2816KiB time=00:00:03.40 bitrate=6784.9kbits/s speed=0.128x elapsed=0:00:26.54    \nframe=  209 fps=7.7 q=29.0 size=    2816KiB time=00:00:03.48 bitrate=6622.6kbits/s speed=0.129x elapsed=0:00:27.08    \nframe=  213 fps=7.7 q=28.0 size=    2816KiB time=00:00:03.55 bitrate=6498.2kbits/s speed=0.128x elapsed=0:00:27.63    \nframe=  217 fps=7.7 q=28.0 size=    2816KiB time=00:00:03.61 bitrate=6378.4kbits/s speed=0.129x elapsed=0:00:28.14    \nframe=  221 fps=7.7 q=28.0 size=    2816KiB time=00:00:03.68 bitrate=6263.0kbits/s speed=0.128x elapsed=0:00:28.69    \nframe=  225 fps=7.7 q=28.0 size=    2816KiB time=00:00:03.75 bitrate=6151.6kbits/s speed=0.128x elapsed=0:00:29.19    \nframe=  229 fps=7.7 q=27.0 size=    2816KiB time=00:00:03.81 bitrate=6044.2kbits/s speed=0.128x elapsed=0:00:29.73    \nframe=  234 fps=7.7 q=27.0 size=    2816KiB time=00:00:03.90 bitrate=5915.0kbits/s speed=0.129x elapsed=0:00:30.25    \nframe=  238 fps=7.7 q=26.0 size=    2816KiB time=00:00:03.96 bitrate=5815.6kbits/s speed=0.129x elapsed=0:00:30.79    \nframe=  243 fps=7.8 q=28.0 size=    2816KiB time=00:00:04.05 bitrate=5696.0kbits/s speed=0.129x elapsed=0:00:31.33    \nframe=  245 fps=7.7 q=28.0 size=    2816KiB time=00:00:04.08 bitrate=5649.5kbits/s speed=0.128x elapsed=0:00:31.86    \nframe=  250 fps=7.7 q=27.0 size=    2816KiB time=00:00:04.16 bitrate=5536.5kbits/s speed=0.129x elapsed=0:00:32.37    \nframe=  255 fps=7.8 q=27.0 size=    2816KiB time=00:00:04.25 bitrate=5427.9kbits/s speed=0.129x elapsed=0:00:32.89    \nframe=  259 fps=7.7 q=25.0 size=    5888KiB time=00:00:04.31 bitrate=11174.0kbits/s speed=0.129x elapsed=0:00:33.43    \nframe=  263 fps=7.7 q=27.0 size=    5888KiB time=00:00:04.38 bitrate=11004.1kbits/s speed=0.129x elapsed=0:00:33.95    \nframe=  267 fps=7.7 q=27.0 size=    5888KiB time=00:00:04.45 bitrate=10839.2kbits/s speed=0.129x elapsed=0:00:34.48    \nframe=  271 fps=7.7 q=26.0 size=    5888KiB time=00:00:04.51 bitrate=10679.2kbits/s speed=0.129x elapsed=0:00:35.00    \nframe=  276 fps=7.8 q=27.0 size=    5888KiB time=00:00:04.60 bitrate=10485.8kbits/s speed=0.129x elapsed=0:00:35.53    \nframe=  276 fps=7.7 q=27.0 size=    5888KiB time=00:00:04.60 bitrate=10485.8kbits/s speed=0.128x elapsed=0:00:36.06    \nframe=  276 fps=7.5 q=27.0 size=    5888KiB time=00:00:04.60 bitrate=10485.8kbits/s speed=0.126x elapsed=0:00:36.60    \nframe=  276 fps=7.4 q=27.0 size=    5888KiB time=00:00:04.60 bitrate=10485.8kbits/s speed=0.124x elapsed=0:00:37.10    \nframe=  276 fps=7.3 q=27.0 size=    5888KiB time=00:00:04.60 bitrate=10485.8kbits/s speed=0.122x elapsed=0:00:37.62    \nframe=  276 fps=7.2 q=27.0 size=    5888KiB time=00:00:04.60 bitrate=10485.8kbits/s speed=0.121x elapsed=0:00:38.16    \n[out#0/webm @ 00000280760d9440] video:7032KiB audio:0KiB subtitle:0KiB other streams:0KiB global headers:0KiB muxing overhead: 0.039704%\nframe=  300 fps=7.8 q=27.0 Lsize=    7035KiB time=00:00:05.00 bitrate=11525.8kbits/s speed=0.129x elapsed=0:00:38.63    \n",
  "seconds": 38.97543740272522,
  "probe_out": {}
}